<?xml version="1.0" standalone="no"?>
<!DOCTYPE svg PUBLIC "-//W3C//DTD SVG 20010904//EN"
 "http://www.w3.org/TR/2001/REC-SVG-20010904/DTD/svg10.dtd">
<svg version="1.0" xmlns="http://www.w3.org/2000/svg"
 width="472.000000pt" height="472.000000pt" viewBox="0 0 472.000000 472.000000"
 preserveAspectRatio="xMidYMid meet">
<metadata>
Created by potrace 1.11, written by Peter Selinger 2001-2013
</metadata>
<g transform="translate(0.000000,472.000000) scale(0.100000,-0.100000)"
fill="#000000" stroke="none">
<path d="M430 3631 c-210 -56 -375 -231 -413 -436 -10 -54 -13 -257 -12 -865
l1 -795 23 -70 c64 -196 215 -338 411 -386 45 -11 402 -13 1925 -13 1766 0
1873 1 1930 18 204 61 348 208 400 407 15 57 17 148 17 869 -1 857 -1 854 -49
959 -31 66 -95 150 -152 197 -73 60 -130 89 -242 122 -13 3 -868 7 -1899 8
-1754 2 -1879 1 -1940 -15z m3820 -121 c166 -44 299 -183 329 -343 12 -64 11
-1576 0 -1630 -33 -150 -154 -279 -307 -328 -54 -17 -147 -18 -1899 -18 -1304
-1 -1857 2 -1895 10 -59 12 -167 67 -201 102 -75 76 -117 149 -137 237 -13 62
-13 1580 1 1639 42 183 194 318 384 339 33 4 875 6 1870 5 1350 -1 1822 -4
1855 -13z"/>
<path d="M885 3000 l-1 -170 93 0 c87 0 93 1 93 21 0 15 -6 20 -22 19 -13 -1
-44 -2 -70 -1 l-48 1 0 150 c0 149 0 150 -22 150 -23 0 -23 0 -23 -170z"/>
<path d="M1173 3149 c-74 -37 -104 -143 -65 -232 36 -82 148 -113 221 -60 91
67 83 246 -14 293 -53 25 -89 25 -142 -1z m131 -38 c49 -43 60 -138 22 -196
-42 -65 -127 -63 -167 2 -74 119 46 280 145 194z"/>
<path d="M1535 3156 c-95 -43 -131 -147 -84 -242 34 -72 135 -103 229 -72 24
8 25 12 25 83 0 82 5 77 -70 77 -41 0 -45 -1 -45 -17 0 -10 11 -15 35 -15 l35
0 0 -50 c0 -54 0 -54 -68 -52 -74 3 -124 66 -115 146 9 81 65 122 154 114 39
-4 52 -2 56 9 3 8 1 18 -6 22 -21 13 -115 11 -146 -3z"/>
<path d="M1855 3163 c-11 -3 -33 -17 -49 -31 -84 -78 -71 -232 24 -284 43 -24
119 -20 158 9 62 45 86 166 46 234 -38 64 -102 90 -179 72z m108 -51 c81 -73
48 -236 -49 -246 -93 -9 -150 116 -98 217 27 52 105 67 147 29z"/>
<path d="M2223 3158 c-5 -7 -9 -82 -9 -168 1 -153 1 -155 24 -158 21 -3 22 0
22 62 0 65 0 66 28 66 80 0 129 35 137 98 4 35 -26 89 -58 101 -38 14 -133 13
-144 -1z m139 -48 c40 -50 10 -108 -59 -115 l-43 -4 0 68 c0 37 3 71 7 75 14
14 78 -2 95 -24z"/>
<path d="M2489 3162 c-1 -4 -2 -80 -3 -169 -2 -163 -2 -163 21 -163 21 0 22 5
25 73 3 69 4 72 29 75 38 4 67 -26 82 -88 12 -48 17 -55 41 -58 25 -3 26 -1
17 17 -6 11 -11 28 -11 39 0 10 -11 40 -24 66 -23 45 -23 47 -5 57 47 25 37
123 -15 147 -24 11 -155 14 -157 4z m141 -47 c45 -40 17 -94 -53 -102 l-47 -6
0 60 c0 33 2 62 6 65 11 12 75 0 94 -17z"/>
<path d="M2758 3158 c-2 -7 -4 -83 -4 -168 1 -153 1 -155 24 -158 l22 -3 0
170 c0 161 -1 171 -19 171 -10 0 -21 -6 -23 -12z"/>
<path d="M2890 3162 c-13 -6 -15 -34 -15 -167 l0 -160 59 -3 c87 -5 139 20
152 72 6 25 -11 86 -25 86 -3 0 -12 4 -19 9 -11 6 -8 14 12 34 32 32 33 68 2
103 -20 24 -32 28 -87 31 -35 1 -71 -1 -79 -5z m121 -37 c24 -9 30 -52 10 -76
-10 -12 -33 -22 -58 -25 l-43 -5 0 54 c0 29 3 56 6 60 7 7 62 2 85 -8z m-6
-145 c14 -5 29 -20 34 -32 18 -49 -13 -80 -81 -84 l-38 -2 0 64 0 64 29 0 c16
0 41 -4 56 -10z"/>
<path d="M3182 3015 c-29 -85 -55 -161 -58 -170 -5 -11 0 -15 18 -15 21 0 27
8 41 54 l17 53 60 0 60 0 17 -54 c14 -45 20 -53 41 -53 15 0 22 5 20 13 -3 6
-29 83 -57 170 -50 150 -54 157 -79 157 -26 0 -29 -7 -80 -155z m92 75 c5 -27
20 -75 31 -102 6 -16 1 -18 -43 -18 l-50 0 19 63 c32 102 33 104 43 57z"/>
<path d="M3458 3157 c-2 -7 -4 -82 -4 -167 l1 -155 55 -3 c120 -6 200 39 218
121 17 83 -4 148 -60 189 -28 19 -47 23 -120 25 -60 2 -87 -1 -90 -10z m181
-45 c40 -29 53 -61 47 -119 -8 -87 -47 -123 -138 -126 l-43 -2 -3 136 -3 136
57 -3 c37 -1 66 -9 83 -22z"/>
<path d="M3785 3003 c0 -166 1 -168 23 -171 l22 -3 0 170 0 171 -23 0 -23 0 1
-167z"/>
<path d="M875 1948 c-105 -60 -113 -217 -14 -290 49 -36 179 -36 179 0 0 14
-8 16 -56 14 -30 -2 -68 1 -83 7 -28 12 -64 67 -66 103 -3 40 17 96 42 120 21
19 35 23 94 23 64 0 70 2 67 20 -3 17 -12 20 -63 23 -47 2 -68 -2 -100 -20z"/>
<path d="M1155 1951 c-50 -23 -76 -66 -82 -139 -6 -73 25 -138 77 -165 44 -22
121 -17 158 10 61 44 85 154 48 226 -41 80 -117 107 -201 68z m128 -39 c78
-70 51 -222 -42 -245 -37 -9 -87 17 -107 55 -24 46 -22 118 5 162 34 54 101
67 144 28z"/>
<path d="M1448 1913 c-2 -61 -2 -70 -12 -200 -6 -78 -5 -83 14 -83 11 0 20 6
21 13 0 6 2 28 4 47 2 19 6 75 9 123 2 49 7 91 10 94 3 4 6 -2 6 -11 0 -39 82
-266 96 -266 17 0 31 30 74 155 48 138 48 139 51 65 1 -36 3 -87 4 -115 2 -27
4 -62 4 -77 1 -23 6 -28 27 -28 14 0 23 3 21 8 -5 7 -20 251 -20 305 1 23 -3
27 -28 27 -33 0 -31 4 -90 -165 -21 -60 -40 -103 -43 -95 -2 8 -14 47 -27 85
-50 161 -58 175 -90 175 -28 0 -29 -1 -31 -57z"/>
<path d="M1837 1963 c-2 -5 -3 -80 -3 -168 1 -158 1 -160 24 -163 l22 -3 0
170 c0 163 -1 171 -19 171 -11 0 -21 -3 -24 -7z"/>
<path d="M1960 1800 c0 -164 1 -170 20 -170 20 0 21 5 19 131 0 72 1 132 2
134 2 2 40 -57 84 -131 65 -108 84 -134 103 -134 22 0 22 0 22 170 0 163 -1
170 -20 170 -19 0 -20 -7 -20 -137 l-1 -138 -20 40 c-11 22 -27 52 -37 67 -9
15 -37 58 -61 97 -34 56 -48 71 -67 71 l-24 0 0 -170z"/>
<path d="M2384 1959 c-129 -37 -154 -241 -38 -306 32 -17 53 -21 107 -19 37 1
72 7 79 14 11 11 16 131 5 148 -5 8 -32 10 -94 5 -7 -1 -13 -8 -13 -16 0 -10
11 -15 35 -15 l35 0 0 -50 c0 -54 2 -52 -67 -53 -94 0 -147 109 -98 202 22 43
65 63 133 60 56 -3 81 13 51 32 -18 11 -94 10 -135 -2z"/>
<path d="M2753 1954 c-31 -16 -39 -28 -48 -73 -6 -30 28 -65 89 -94 56 -27 73
-51 61 -87 -8 -26 -67 -42 -106 -28 -21 7 -34 7 -41 0 -17 -17 0 -30 46 -37
84 -13 149 26 149 90 0 43 -23 70 -85 97 -59 25 -72 40 -64 73 8 32 38 44 88
35 31 -6 41 -4 45 7 3 8 1 18 -6 22 -22 14 -96 11 -128 -5z"/>
<path d="M3031 1954 c-83 -36 -116 -151 -68 -244 29 -57 75 -83 140 -77 88 8
139 68 140 166 2 128 -101 204 -212 155z m123 -43 c78 -69 49 -227 -45 -244
-93 -17 -156 113 -103 215 27 52 104 68 148 29z"/>
<path d="M3375 1951 c-49 -25 -74 -65 -82 -129 -11 -97 39 -175 119 -187 56
-8 83 -1 123 30 38 28 58 79 58 146 0 119 -115 192 -218 140z m133 -44 c52
-49 54 -162 3 -211 -74 -71 -174 -11 -174 104 0 112 99 174 171 107z"/>
<path d="M3650 1800 c0 -165 1 -170 21 -170 19 0 20 4 17 140 -2 96 0 136 7
126 6 -9 44 -72 85 -140 60 -101 79 -126 98 -126 22 0 22 0 22 170 0 165 -1
170 -21 170 -19 0 -20 -5 -19 -122 1 -68 1 -130 1 -138 -1 -8 -13 8 -29 35
-15 28 -51 90 -81 138 -43 69 -59 87 -78 87 l-23 0 0 -170z"/>
</g>
</svg>
